Coordinates
version=1
nRows=4
nColumns=63
inDegrees=yes

Units are S.I. units (second, meters, Newtons, ...)
If the header above contains a line with 'inDegrees', this indicates whether rotational values are in degrees (yes) or radians (no).

endheader
time	pelvis_tilt	pelvis_list	pelvis_rotation	pelvis_tx	pelvis_ty	pelvis_tz	hip_flexion_r	hip_adduction_r	hip_rotation_r	knee_angle_r	knee_angle_r_beta	ankle_angle_r	subtalar_angle_r	mtp_angle_r	hip_flexion_l	hip_adduction_l	hip_rotation_l	knee_angle_l	knee_angle_l_beta	ankle_angle_l	subtalar_angle_l	mtp_angle_l	L5_S1_Flex_Ext	L5_S1_Lat_Bending	L5_S1_axial_rotation	L4_L5_Flex_Ext	L4_L5_Lat_Bending	L4_L5_axial_rotation	L3_L4_Flex_Ext	L3_L4_Lat_Bending	L3_L4_axial_rotation	L2_L3_Flex_Ext	L2_L3_Lat_Bending	L2_L3_axial_rotation	L1_L2_Flex_Ext	L1_L2_Lat_Bending	L1_L2_axial_rotation	L1_T12_Flex_Ext	L1_T12_Lat_Bending	L1_T12_axial_rotation	Abs_r3	Abs_r2	Abs_r1	Abs_t1	Abs_t2	neck_flexion	neck_bending	neck_rotation	arm_flex_r	arm_add_r	arm_rot_r	elbow_flex_r	pro_sup_r	wrist_flex_r	wrist_dev_r	arm_flex_l	arm_add_l	arm_rot_l	elbow_flex_l	pro_sup_l	wrist_flex_l	wrist_dev_l
      6.50847458	      4.65967179	    -49.04024196	     91.47578393	      0.19531262	      0.69554893	      0.58709529	     82.31643768	     -2.22281994	     -8.50681871	     58.67567239	      1.02408367	     45.66699684	     -5.75806613	      0.00000000	     92.94015779	     -1.20953228	      6.62714452	     69.19997991	      1.20776749	     47.45545582	    -10.87215533	      0.00000000	      0.58234096	      2.01863630	     -1.48900853	      1.08146539	      2.68478627	     -1.58207157	      0.95672796	      4.90811229	     -1.58207157	      0.66555748	      4.90811229	     -1.30288247	      0.54076181	      4.11640313	     -1.20981943	      0.33274962	      3.12686762	     -1.11675640	      4.15960324	     22.83521750	     -8.28141877	      0.00000000	      0.00000000	     28.41714046	     -4.29101784	     28.80532139	     27.76239414	    -14.90246329	     32.98909443	     72.20759045	     88.83520078	    -36.81103839	    -16.08525059	     46.67715064	    -14.41529898	      1.97640536	     74.55389864	     89.29528169	    -19.18496379	     -6.84247155
      6.52542373	      4.09936609	    -49.39721966	     90.49051650	      0.19950491	      0.69161167	      0.59012883	     83.35219094	     -1.16409552	     -7.62767537	     59.48753144	      1.03825329	     45.39535635	     -7.11273715	      0.00000000	     93.67408743	     -2.29103816	      6.03173304	     70.06553591	      1.22287429	     46.65024343	    -11.85055313	      0.00000000	      0.58232217	      1.92701866	     -1.59957846	      1.08143051	      2.56293481	     -1.69955212	      0.95669710	      4.68535316	     -1.69955212	      0.66553601	      4.68535316	     -1.39963116	      0.54074437	      3.92957645	     -1.29965750	      0.33273889	      2.98495190	     -1.19968385	      4.15946906	     21.79882045	     -8.89637555	      0.00000000	      0.00000000	     28.41061241	     -2.70515333	     29.74850045	     27.00123895	    -14.16708844	     35.32230417	     70.48980177	     88.77245948	    -38.03010109	    -18.27742052	     48.43387142	    -16.21438520	      3.68935800	     69.70167986	     89.27758221	    -21.66973159	    -11.13142788
      6.54237288	      3.24626749	    -49.81721001	     89.31308708	      0.20336450	      0.68754645	      0.59344872	     84.56857592	     -0.32577293	     -6.71550921	     60.42765968	      1.05466162	     45.16913895	     -7.46138915	      0.00000000	     94.42401351	     -3.30545197	      5.23616600	     70.88445674	      1.23716716	     45.31019692	    -13.18598456	      0.00000000	      0.59417978	      1.81795390	     -1.71946033	      1.10345126	      2.41787869	     -1.82692660	      0.97617796	      4.42017312	     -1.82692660	      0.67908807	      4.42017312	     -1.50452779	      0.55175534	      3.70717160	     -1.39706152	      0.33951432	      2.81601059	     -1.28959525	      4.24416673	     20.56505813	     -9.56312253	      0.00000000	      0.00000000	     28.40869219	     -1.03692202	     30.88923457	     26.55981612	    -13.48696457	     37.73469158	     69.23241881	     88.81464640	    -37.48599091	    -18.02905080	     49.81222518	    -18.13047323	      5.70362040	     65.62381393	     89.30967027	    -24.63017764	    -14.60624001
      6.55932203	      2.09980218	    -50.20478636	     87.91754449	      0.20716597	      0.68361008	      0.59702185	     85.79717321	      0.41427552	     -5.73354784	     61.38502851	      1.07137086	     44.97315185	     -7.09761544	      0.00000000	     95.08734709	     -4.30081847	      4.27300490	     71.61193919	      1.24986412	     43.70586663	    -14.60172947	      0.00000000	      0.60854896	      1.68333664	     -1.82536149	      1.13013627	      2.23883773	     -1.93944658	      0.99978509	      4.09286470	     -1.93944658	      0.69551061	      4.09286470	     -1.59719130	      0.56509856	      3.43266007	     -1.48310621	      0.34772488	      2.60748845	     -1.36902112	      4.34680436	     19.04224072	    -10.15211298	      0.00000000	      0.00000000	     28.41095064	      0.59870578	     31.61894437	     26.32325078	    -12.66934740	     39.74520627	     68.37679345	     88.88065356	    -36.30846532	    -16.44362624	     51.10593122	    -20.18658974	      8.36115963	     62.11656110	     89.34591271	    -28.27158024	    -17.93974281
